<svg width="20" height="20" viewBox="0 0 20 20" fill="none" xmlns="http://www.w3.org/2000/svg">
<path d="M19.4634 8.69832L11.3027 0.539441C11.1317 0.36842 10.9287 0.232756 10.7052 0.140198C10.4818 0.0476397 10.2423 0 10.0005 0C9.75863 0 9.51915 0.0476397 9.29571 0.140198C9.07228 0.232756 8.86927 0.36842 8.69829 0.539441L0.543645 8.69326L0.535538 8.70136C0.282272 8.95405 0.108166 9.27508 0.0345229 9.62517C-0.0391201 9.97526 -0.00910571 10.3392 0.120893 10.6725C0.250892 11.0058 0.475238 11.294 0.766478 11.5018C1.05772 11.7096 1.40322 11.828 1.76071 11.8425H1.81746H2.14275V17.8462C2.14383 18.4171 2.37119 18.9643 2.77502 19.3679C3.17885 19.7715 3.72622 19.9986 4.29719 19.9994H7.48933C7.64467 19.9994 7.79366 19.9377 7.9035 19.8278C8.01335 19.718 8.07506 19.569 8.07506 19.4137V14.707C8.07533 14.4464 8.17898 14.1966 8.36326 14.0123C8.54755 13.8281 8.79742 13.7244 9.05803 13.7242H10.9449C11.2056 13.7244 11.4554 13.8281 11.6397 14.0123C11.824 14.1966 11.9276 14.4464 11.9279 14.707V19.4137C11.9279 19.569 11.9896 19.718 12.0995 19.8278C12.2093 19.9377 12.3583 19.9994 12.5136 19.9994H15.7078C16.2791 19.9988 16.8269 19.7717 17.231 19.3679C17.6351 18.964 17.8625 18.4164 17.8633 17.8451V11.8415H18.1673C18.5312 11.8414 18.8869 11.7334 19.1895 11.5313C19.4921 11.3292 19.728 11.0419 19.8674 10.7059C20.0069 10.3698 20.0436 9.99989 19.9729 9.64295C19.9023 9.28601 19.7274 8.958 19.4705 8.70035L19.4634 8.69832Z" fill="#151AAE"/>
</svg>
