<svg width="19" height="19" viewBox="0 0 19 19" fill="none" xmlns="http://www.w3.org/2000/svg">
<g clip-path="url(#clip0_3246_8527)">
<path d="M1.44814 11.8227C0.813725 11.8227 0.297852 12.3386 0.297852 12.973C0.297852 13.6074 0.813725 14.1233 1.44814 14.1233H3.13291L2.34539 17.2734C2.2707 17.5717 2.31676 17.8809 2.47488 18.1443C2.63296 18.408 2.88402 18.5939 3.18173 18.6683C3.27327 18.6913 3.36764 18.7031 3.46172 18.7031C3.98995 18.7031 4.44885 18.3448 4.57688 17.8314L5.50393 14.1233H11.185L10.3974 17.2734C10.3227 17.5717 10.3688 17.8809 10.5269 18.1443C10.685 18.408 10.9361 18.5939 11.2338 18.6683C11.3253 18.6913 11.4197 18.7031 11.5138 18.7031C12.042 18.7031 12.5009 18.3448 12.6289 17.8314L13.556 14.1233H17.5522C18.1866 14.1233 18.7025 13.6074 18.7025 12.973C18.7025 12.3386 18.1866 11.8227 17.5522 11.8227H14.1312L15.2923 7.17832H17.5522C18.1866 7.17832 18.7025 6.66241 18.7025 6.028C18.7025 5.39359 18.1866 4.87772 17.5522 4.87772H15.8674L16.655 1.72762C16.7297 1.42937 16.6836 1.12018 16.5255 0.856746C16.3674 0.593032 16.1163 0.407123 15.8189 0.33272C15.5218 0.256881 15.2121 0.302398 14.9492 0.45964C14.6849 0.617756 14.4982 0.869945 14.4235 1.16961L13.4964 4.87772H7.8154L8.60292 1.72763C8.67761 1.42938 8.63155 1.12018 8.47344 0.856752C8.31536 0.593038 8.06429 0.407129 7.76688 0.332726C7.4695 0.257166 7.16055 0.302938 6.89687 0.45964C6.63287 0.617756 6.44612 0.869945 6.37143 1.16961L5.44439 4.87772H1.44814C0.813725 4.87772 0.297852 5.3936 0.297852 6.02801C0.297852 6.66242 0.813725 7.17832 1.44814 7.17832H4.86919L3.70811 11.8227H1.44814ZM7.24021 7.17832H12.9212L11.7602 11.8227H6.07912L7.24021 7.17832Z" fill="#151AAE"/>
</g>
<defs>
<clipPath id="clip0_3246_8527">
<rect width="19" height="19" fill="white"/>
</clipPath>
</defs>
</svg>
