<svg width="18" height="18" viewBox="0 0 18 18" fill="none" xmlns="http://www.w3.org/2000/svg">
<path d="M15.2944 2.7H14.3947V0.9C14.3947 0.661305 14.3 0.432387 14.1312 0.263604C13.9625 0.0948211 13.7337 0 13.4951 0C13.2565 0 13.0276 0.0948211 12.8589 0.263604C12.6902 0.432387 12.5954 0.661305 12.5954 0.9V2.7H5.39803V0.9C5.39803 0.661305 5.30324 0.432387 5.13452 0.263604C4.9658 0.0948211 4.73697 0 4.49836 0C4.25975 0 4.03092 0.0948211 3.86219 0.263604C3.69347 0.432387 3.59869 0.661305 3.59869 0.9V2.7H2.69902C1.98319 2.7 1.29669 2.98446 0.790523 3.49081C0.28436 3.99716 0 4.68392 0 5.4V6.3H17.9934V5.4C17.9934 4.68392 17.7091 3.99716 17.2029 3.49081C16.6967 2.98446 16.0102 2.7 15.2944 2.7Z" fill="#151AAE"/>
<path d="M0 15.2996C0 16.0157 0.28436 16.7025 0.790523 17.2088C1.29669 17.7151 1.98319 17.9996 2.69902 17.9996H15.2944C16.0102 17.9996 16.6967 17.7151 17.2029 17.2088C17.7091 16.7025 17.9934 16.0157 17.9934 15.2996V8.09961H0V15.2996Z" fill="#151AAE"/>
</svg>
