<svg width="25" height="25" viewBox="0 0 25 25" fill="none" xmlns="http://www.w3.org/2000/svg">
<g clip-path="url(#clip0_3246_8515)">
<path d="M24.7888 21.7246L22.7485 19.6599C22.6103 19.5294 22.4267 19.4577 22.2367 19.4599C22.0466 19.4621 21.8647 19.538 21.7295 19.6716C21.5943 19.8052 21.5163 19.9862 21.5118 20.1762C21.5074 20.3663 21.5769 20.5506 21.7058 20.6904L22.4881 21.4825H3.51719V2.48958L4.30566 3.27805C4.37281 3.35011 4.45378 3.40791 4.54375 3.448C4.63372 3.48809 4.73084 3.50964 4.82933 3.51138C4.92781 3.51312 5.02563 3.495 5.11696 3.45811C5.20829 3.42122 5.29125 3.36632 5.3609 3.29667C5.43055 3.22702 5.48546 3.14406 5.52235 3.05273C5.55923 2.9614 5.57735 2.86358 5.57561 2.7651C5.57387 2.66661 5.55232 2.56949 5.51223 2.47952C5.47214 2.38955 5.41434 2.30857 5.34228 2.24143L3.32038 0.214631C3.18301 0.0783951 2.99737 0.00195312 2.8039 0.00195312C2.61043 0.00195312 2.42479 0.0783951 2.28742 0.214631L0.217839 2.25121C0.0873514 2.38946 0.0156421 2.57298 0.0178279 2.76308C0.0200137 2.95317 0.0959238 3.13499 0.229556 3.27021C0.363188 3.40543 0.544102 3.48348 0.734159 3.4879C0.924216 3.49233 1.10857 3.42279 1.24835 3.29394L2.05271 2.49936V21.4825H0.732484C0.537958 21.4825 0.3514 21.5598 0.213849 21.6974C0.0762985 21.8349 -0.000976562 22.0215 -0.000976562 22.216C-0.000976562 22.4105 0.0762985 22.5971 0.213849 22.7346C0.3514 22.8722 0.537958 22.9495 0.732484 22.9495H2.05149V24.2685C2.05149 24.463 2.12877 24.6496 2.26632 24.7871C2.40387 24.9247 2.59042 25.0019 2.78495 25.0019C2.97948 25.0019 3.16604 24.9247 3.30359 24.7871C3.44114 24.6496 3.51841 24.463 3.51841 24.2685V22.9482H22.5224L21.7217 23.7489C21.5921 23.888 21.5216 24.0719 21.5249 24.2619C21.5283 24.4519 21.6053 24.6332 21.7396 24.7676C21.874 24.902 22.0553 24.9789 22.2453 24.9823C22.4354 24.9856 22.6193 24.9151 22.7583 24.7856L24.7851 22.7588C24.9213 22.6214 24.9978 22.4358 24.9978 22.2423C24.9978 22.0488 24.9213 21.8632 24.7851 21.7258L24.7888 21.7246Z" fill="#151AAE"/>
<path d="M6.75243 9.1735H21.4082C21.56 9.17338 21.7081 9.12614 21.832 9.03829C21.9558 8.95043 22.0494 8.82631 22.0997 8.68303C22.15 8.53976 22.1546 8.3844 22.1128 8.23841C22.0711 8.09241 21.9851 7.96296 21.8666 7.86794L14.5381 2.00026C14.4081 1.89641 14.2467 1.83984 14.0803 1.83984C13.9139 1.83984 13.7525 1.89641 13.6225 2.00026L6.29402 7.86794C6.17566 7.9629 6.08965 8.09223 6.04788 8.23811C6.0061 8.38399 6.01059 8.53924 6.06075 8.68246C6.1109 8.82567 6.20425 8.94981 6.32791 9.03776C6.45157 9.1257 6.59946 9.17313 6.7512 9.1735H6.75243Z" fill="#151AAE"/>
<path d="M13.3477 13.5684H14.8146V17.9691H13.3477V13.5684Z" fill="#151AAE"/>
<path d="M19.2106 17.9655C19.3069 17.9655 19.4023 17.9465 19.4913 17.9096C19.5803 17.8728 19.6612 17.8188 19.7293 17.7507C19.7974 17.6825 19.8514 17.6017 19.8883 17.5127C19.9251 17.4237 19.9441 17.3283 19.9441 17.232V10.6309H8.21973V17.232C8.21973 17.3283 8.23869 17.4237 8.27555 17.5127C8.31241 17.6017 8.36644 17.6825 8.43455 17.7507C8.50266 17.8188 8.58352 17.8728 8.67251 17.9096C8.76149 17.9465 8.85688 17.9655 8.95319 17.9655H11.887V12.8312C11.887 12.6367 11.9643 12.4502 12.1019 12.3126C12.2394 12.1751 12.426 12.0978 12.6205 12.0978H15.5543C15.7489 12.0978 15.9354 12.1751 16.073 12.3126C16.2105 12.4502 16.2878 12.6367 16.2878 12.8312V17.9655H19.2106Z" fill="#151AAE"/>
</g>
<defs>
<clipPath id="clip0_3246_8515">
<rect width="25" height="25" fill="white"/>
</clipPath>
</defs>
</svg>
