<svg width="19" height="17" viewBox="0 0 19 17" fill="none" xmlns="http://www.w3.org/2000/svg">
<path d="M14.25 0.361328H4.75C1.9 0.361328 0 1.77361 0 5.06893V11.6596C0 14.9549 1.9 16.3672 4.75 16.3672H14.25C17.1 16.3672 19 14.9549 19 11.6596V5.06893C19 1.77361 17.1 0.361328 14.25 0.361328ZM14.6965 6.09518L11.723 8.44898C11.0841 8.93141 10.3032 9.19268 9.5 9.19268C8.69683 9.19268 7.91586 8.93141 7.277 8.44898L4.3035 6.09518C4.15795 5.97574 4.06476 5.80505 4.0435 5.61896C4.02224 5.43286 4.07457 5.24584 4.1895 5.09717C4.30676 4.95125 4.47766 4.85739 4.66467 4.83621C4.85168 4.81503 5.03954 4.86825 5.187 4.98419L8.1605 7.33799C8.54821 7.61794 9.01555 7.76877 9.49525 7.76877C9.97495 7.76877 10.4423 7.61794 10.83 7.33799L13.8035 4.98419C13.876 4.92557 13.9596 4.88193 14.0494 4.85584C14.1392 4.82975 14.2333 4.82173 14.3263 4.83226C14.4192 4.84279 14.5091 4.87165 14.5907 4.91715C14.6722 4.96265 14.7437 5.02386 14.801 5.09717C14.9194 5.24378 14.9748 5.43066 14.9552 5.61741C14.9356 5.80417 14.8427 5.97579 14.6965 6.09518Z" fill="#151AAE"/>
</svg>
