<svg width="24" height="24" viewBox="0 0 24 24" fill="none" xmlns="http://www.w3.org/2000/svg">
<g clip-path="url(#clip0_1001_8507)">
<path d="M19.7788 16.0702C19.7785 15.961 19.735 15.8564 19.6578 15.7792C19.5806 15.702 19.476 15.6585 19.3668 15.6582H16.0668C15.9576 15.6585 15.8529 15.702 15.7757 15.7792C15.6985 15.8564 15.655 15.961 15.6548 16.0702V19.3702C15.655 19.4794 15.6985 19.584 15.7757 19.6612C15.8529 19.7384 15.9576 19.7819 16.0668 19.7822H19.3668C19.476 19.7819 19.5806 19.7384 19.6578 19.6612C19.735 19.584 19.7785 19.4794 19.7788 19.3702V16.0702Z" fill="#151AAE"/>
<path d="M15.6622 12.7733C15.6619 12.6641 15.6185 12.5595 15.5413 12.4823C15.4641 12.4051 15.3594 12.3616 15.2502 12.3613H12.7782C12.669 12.3616 12.5644 12.4051 12.4872 12.4823C12.41 12.5595 12.3665 12.6641 12.3662 12.7733V15.2453C12.3665 15.3545 12.41 15.4592 12.4872 15.5364C12.5644 15.6136 12.669 15.6571 12.7782 15.6573H15.2502C15.3594 15.6571 15.4641 15.6136 15.5413 15.5364C15.6185 15.4592 15.6619 15.3545 15.6622 15.2453V12.7733Z" fill="#151AAE"/>
<path d="M22.6628 19.7793H20.1908C20.0816 19.7796 19.977 19.8231 19.8998 19.9003C19.8226 19.9775 19.7791 20.0821 19.7788 20.1913V22.6633C19.7791 22.7725 19.8226 22.8771 19.8998 22.9543C19.977 23.0316 20.0816 23.075 20.1908 23.0753H22.6628C22.772 23.075 22.8766 23.0316 22.9539 22.9543C23.0311 22.8771 23.0745 22.7725 23.0748 22.6633V20.1913C23.0745 20.0821 23.0311 19.9775 22.9539 19.9003C22.8766 19.8231 22.772 19.7796 22.6628 19.7793Z" fill="#151AAE"/>
<path d="M22.663 12.3613H21.015C20.9058 12.3616 20.8012 12.4051 20.724 12.4823C20.6468 12.5595 20.6033 12.6641 20.603 12.7733V14.4213C20.6033 14.5305 20.6468 14.6352 20.724 14.7124C20.8012 14.7896 20.9058 14.833 21.015 14.8333H22.663C22.7722 14.833 22.8769 14.7896 22.9541 14.7124C23.0313 14.6352 23.0747 14.5305 23.075 14.4213V12.7733C23.0747 12.6641 23.0313 12.5595 22.9541 12.4823C22.8769 12.4051 22.7722 12.3616 22.663 12.3613Z" fill="#151AAE"/>
<path d="M14.4218 20.6035H12.7738C12.6646 20.6038 12.56 20.6473 12.4828 20.7245C12.4056 20.8017 12.3621 20.9063 12.3618 21.0155V22.6635C12.3621 22.7727 12.4056 22.8774 12.4828 22.9546C12.56 23.0318 12.6646 23.0752 12.7738 23.0755H14.4218C14.531 23.0752 14.6357 23.0318 14.7129 22.9546C14.7901 22.8774 14.8335 22.7727 14.8338 22.6635V21.0155C14.8335 20.9063 14.7901 20.8017 14.7129 20.7245C14.6357 20.6473 14.531 20.6038 14.4218 20.6035Z" fill="#151AAE"/>
<path d="M16.0702 7.41697H19.3702C19.4794 7.41671 19.584 7.37321 19.6612 7.29601C19.7384 7.2188 19.7819 7.11415 19.7822 7.00497V3.70496C19.7819 3.59578 19.7384 3.49114 19.6612 3.41393C19.584 3.33672 19.4794 3.29323 19.3702 3.29297H16.0702C15.961 3.29323 15.8564 3.33672 15.7792 3.41393C15.702 3.49114 15.6585 3.59578 15.6582 3.70496V7.00497C15.6585 7.11415 15.702 7.2188 15.7792 7.29601C15.8564 7.37321 15.961 7.41671 16.0702 7.41697Z" fill="#151AAE"/>
<path d="M21.4268 0H14.0098C13.5732 0.00131886 13.1547 0.175372 12.8459 0.484146C12.5372 0.792921 12.3631 1.21133 12.3618 1.648V9.065C12.3631 9.50167 12.5372 9.92008 12.8459 10.2289C13.1547 10.5376 13.5732 10.7117 14.0098 10.713H21.4268C21.8635 10.7117 22.2819 10.5376 22.5907 10.2289C22.8994 9.92008 23.0735 9.50167 23.0748 9.065V1.648C23.0735 1.21133 22.8994 0.792921 22.5907 0.484146C22.2819 0.175372 21.8635 0.00131886 21.4268 0ZM21.4268 9.065H14.0098V1.648H21.4268V9.065Z" fill="#151AAE"/>
<path d="M3.70797 7.41788H7.00797C7.11715 7.41762 7.2218 7.37413 7.299 7.29692C7.37621 7.21971 7.4197 7.11507 7.41997 7.00588V3.70588C7.41891 3.59669 7.37466 3.49237 7.29689 3.41572C7.21912 3.33908 7.11416 3.29635 7.00497 3.29688H3.70496C3.59578 3.29714 3.49114 3.34064 3.41393 3.41784C3.33672 3.49505 3.29323 3.59969 3.29297 3.70888V7.00888C3.29402 7.11807 3.33828 7.22239 3.41605 7.29904C3.49382 7.37569 3.59878 7.41842 3.70797 7.41788Z" fill="#151AAE"/>
<path d="M9.065 0H1.648C1.21133 0.00131886 0.792921 0.175372 0.484146 0.484146C0.175372 0.792921 0.00131886 1.21133 0 1.648V9.065C0.00131886 9.50167 0.175372 9.92008 0.484146 10.2289C0.792921 10.5376 1.21133 10.7117 1.648 10.713H9.065C9.50167 10.7117 9.92008 10.5376 10.2289 10.2289C10.5376 9.92008 10.7117 9.50167 10.713 9.065V1.648C10.7117 1.21133 10.5376 0.792921 10.2289 0.484146C9.92008 0.175372 9.50167 0.00131886 9.065 0ZM9.065 9.065H1.648V1.648H9.065V9.065Z" fill="#151AAE"/>
<path d="M3.7079 19.7783H7.0079C7.11708 19.778 7.22173 19.7345 7.29893 19.6573C7.37614 19.5801 7.41963 19.4755 7.4199 19.3663V16.0663C7.41963 15.9571 7.37614 15.8524 7.29893 15.7752C7.22173 15.698 7.11708 15.6546 7.0079 15.6543H3.7079C3.59871 15.6546 3.49407 15.698 3.41686 15.7752C3.33965 15.8524 3.29616 15.9571 3.2959 16.0663V19.3663C3.29616 19.4755 3.33965 19.5801 3.41686 19.6573C3.49407 19.7345 3.59871 19.778 3.7079 19.7783Z" fill="#151AAE"/>
<path d="M9.065 12.3613H1.648C1.21133 12.3626 0.792921 12.5367 0.484146 12.8455C0.175372 13.1542 0.00131886 13.5727 0 14.0093V21.4263C0.00131886 21.863 0.175372 22.2814 0.484146 22.5902C0.792921 22.899 1.21133 23.073 1.648 23.0743H9.065C9.50167 23.073 9.92008 22.899 10.2289 22.5902C10.5376 22.2814 10.7117 21.863 10.713 21.4263V14.0093C10.7117 13.5727 10.5376 13.1542 10.2289 12.8455C9.92008 12.5367 9.50167 12.3626 9.065 12.3613ZM9.065 21.4263H1.648V14.0093H9.065V21.4263Z" fill="#151AAE"/>
</g>
<defs>
<clipPath id="clip0_1001_8507">
<rect width="23.075" height="23.075" fill="white"/>
</clipPath>
</defs>
</svg>
