<svg width="25" height="25" viewBox="0 0 25 25" fill="none" xmlns="http://www.w3.org/2000/svg">
<g clip-path="url(#clip0_3246_8483)">
<path d="M23.5004 2.50225H21.0007C21.0007 2.3696 20.948 2.24239 20.8542 2.14859C20.7604 2.0548 20.6332 2.00211 20.5005 2.00211C20.3679 2.00211 20.2407 2.0548 20.1469 2.14859C20.0531 2.24239 20.0004 2.3696 20.0004 2.50225V8.50158C20.0004 8.63422 19.9477 8.76144 19.8539 8.85523C19.7601 8.94903 19.6329 9.00172 19.5002 9.00172C19.3676 9.00172 19.2403 8.94903 19.1465 8.85523C19.0527 8.76144 19 8.63422 19 8.50158V7.00235H11.001V5.50191H19.0012V2.49624H11.001C11.001 2.36359 10.9483 2.23638 10.8545 2.14258C10.7607 2.04879 10.6334 1.99609 10.5008 1.99609C10.3681 1.99609 10.2409 2.04879 10.1471 2.14258C10.0533 2.23638 10.0006 2.36359 10.0006 2.49624V8.49556C10.0006 8.62821 9.94792 8.75542 9.85412 8.84922C9.76032 8.94302 9.6331 8.99571 9.50045 8.99571C9.36779 8.99571 9.24057 8.94302 9.14677 8.84922C9.05297 8.75542 9.00028 8.62821 9.00028 8.49556V7.06727C8.57137 7.17808 8.19141 7.42818 7.92005 7.7783C7.64868 8.12843 7.50128 8.55875 7.50098 9.00172V16.5015C7.50098 17.0317 7.71163 17.5403 8.08661 17.9153C8.46158 18.2902 8.97016 18.5009 9.50045 18.5009H21.4997C22.03 18.5009 22.5385 18.2902 22.9135 17.9153C23.2885 17.5403 23.4991 17.0317 23.4991 16.5015V9.00172C23.4991 8.47145 23.2885 7.9629 22.9135 7.58795C22.5385 7.21299 22.03 7.00235 21.4997 7.00235H20.9995V5.50191H23.4991C23.8977 5.50191 24.28 5.34358 24.5619 5.06174C24.8437 4.77991 25.0021 4.39765 25.0021 3.99908C25.0021 3.6005 24.8437 3.21825 24.5619 2.93641C24.28 2.65457 23.8977 2.49624 23.4991 2.49624L23.5004 2.50225Z" fill="#151AAE"/>
<path d="M8.99987 5.50058V2.49491H5.99405C6.04663 2.1535 6.0215 1.80463 5.92054 1.47427C5.81958 1.14392 5.64538 0.840603 5.41093 0.586908C5.13129 0.306765 4.77478 0.115923 4.38658 0.038561C3.99838 -0.0388011 3.59594 0.000797639 3.23027 0.15234C2.86459 0.303883 2.55213 0.56055 2.33246 0.889824C2.11279 1.2191 1.9958 1.60616 1.99632 2.00198V2.50212H1.50096C1.10236 2.50212 0.720089 2.66046 0.438239 2.94229C0.156389 3.22413 -0.00195312 3.60638 -0.00195312 4.00496C-0.00195312 4.40354 0.156389 4.78579 0.438239 5.06763C0.720089 5.34946 1.10236 5.5078 1.50096 5.5078H2.00112V24.5037C2.00112 24.6363 2.05382 24.7635 2.14762 24.8573C2.24142 24.9511 2.36864 25.0038 2.50129 25.0038H5.50711C5.63977 25.0038 5.76698 24.9511 5.86078 24.8573C5.95458 24.7635 6.00728 24.6363 6.00728 24.5037V5.5078L8.99987 5.50058Z" fill="#151AAE"/>
<path d="M14.4943 13.7513C14.4943 12.2508 14.5796 12.002 14.2442 12.002C13.9087 12.002 13.9941 12.252 13.9941 13.7513C13.9941 13.8176 14.0204 13.8812 14.0673 13.9281C14.1142 13.975 14.1778 14.0013 14.2442 14.0013C14.3105 14.0013 14.3741 13.975 14.421 13.9281C14.4679 13.8812 14.4943 13.8176 14.4943 13.7513Z" fill="#151AAE"/>
<path d="M20.0002 13.7507C20.0002 11.886 20.1204 12.0014 19.5 12.0014V14.0008H19.7501C19.8164 14.0008 19.88 13.9744 19.9269 13.9275C19.9738 13.8806 20.0002 13.817 20.0002 13.7507Z" fill="#151AAE"/>
<path d="M16.5924 15.3891H14.1877C13.9161 15.3993 13.6514 15.3018 13.4513 15.1178C13.2511 14.9339 13.1317 14.6784 13.1189 14.4069V13.1193C13.1167 13.0909 13.1204 13.0623 13.1298 13.0354C13.1392 13.0085 13.154 12.9839 13.1734 12.963C13.1927 12.9421 13.2162 12.9254 13.2423 12.914C13.2684 12.9026 13.2966 12.8967 13.3251 12.8967C13.3535 12.8967 13.3817 12.9026 13.4078 12.914C13.4339 12.9254 13.4574 12.9421 13.4768 12.963C13.4961 12.9839 13.511 13.0085 13.5203 13.0354C13.5297 13.0623 13.5334 13.0909 13.5313 13.1193V14.4069C13.5439 14.5691 13.6198 14.7198 13.7427 14.8264C13.8655 14.933 14.0254 14.987 14.1877 14.9768H16.5924C16.7547 14.987 16.9146 14.933 17.0375 14.8264C17.1603 14.7198 17.2362 14.5691 17.2489 14.4069V13.1193C17.2467 13.0909 17.2504 13.0623 17.2598 13.0354C17.2692 13.0085 17.284 12.9839 17.3034 12.963C17.3227 12.9421 17.3462 12.9254 17.3723 12.914C17.3984 12.9026 17.4266 12.8967 17.4551 12.8967C17.4835 12.8967 17.5117 12.9026 17.5378 12.914C17.5639 12.9254 17.5874 12.9421 17.6068 12.963C17.6261 12.9839 17.641 13.0085 17.6503 13.0354C17.6597 13.0623 17.6634 13.0909 17.6613 13.1193V14.4069C17.6485 14.6784 17.529 14.9339 17.3288 15.1178C17.1287 15.3018 16.864 15.3993 16.5924 15.3891ZM18.2203 12.648C18.2397 12.6288 18.255 12.6059 18.2655 12.5807C18.276 12.5556 18.2814 12.5286 18.2814 12.5013C18.2814 12.474 18.276 12.447 18.2655 12.4219C18.255 12.3967 18.2397 12.3738 18.2203 12.3546L15.5355 9.67235C15.5163 9.65301 15.4935 9.63767 15.4683 9.62719C15.4431 9.61672 15.4161 9.61133 15.3889 9.61133C15.3616 9.61133 15.3346 9.61672 15.3094 9.62719C15.2842 9.63767 15.2614 9.65301 15.2422 9.67235L12.5598 12.3546C12.5209 12.3935 12.499 12.4463 12.499 12.5013C12.499 12.5563 12.5209 12.6091 12.5598 12.648C12.5987 12.6869 12.6514 12.7087 12.7065 12.7087C12.7615 12.7087 12.8142 12.6869 12.8531 12.648L15.3901 10.11L17.9246 12.6468C17.9438 12.6661 17.9666 12.6815 17.9918 12.6919C18.017 12.7024 18.044 12.7078 18.0713 12.7078C18.0985 12.7078 18.1255 12.7024 18.1507 12.6919C18.1759 12.6815 18.1987 12.6661 18.2179 12.6468L18.2203 12.648Z" fill="white" stroke="white" stroke-width="0.3"/>
</g>
<defs>
<clipPath id="clip0_3246_8483">
<rect width="25" height="25" fill="white"/>
</clipPath>
</defs>
</svg>
